<svg width="65" height="65" viewBox="0 0 65 65" fill="none" xmlns="http://www.w3.org/2000/svg">
<path d="M58.6444 21.3823L32.0467 3.65053C31.7202 3.4329 31.2953 3.4329 30.9689 3.65053L4.37115 21.3823C4.10105 21.5624 3.93848 21.8662 3.93848 22.1907C3.93848 22.5152 4.10041 22.819 4.37115 22.999L8.41094 25.6922V39.8856C8.41094 40.2166 8.57934 40.5249 8.85786 40.7036L31.1386 54.9877C31.2985 55.09 31.4806 55.1412 31.6632 55.1412C31.8543 55.1412 32.046 55.0848 32.2105 54.9721L43.835 47.0415V52.5717L39.5044 61.2329C39.3542 61.5341 39.3704 61.8923 39.5465 62.1786C39.7234 62.4642 40.0368 62.6391 40.373 62.6391H49.2396C49.5764 62.6391 49.8892 62.4642 50.066 62.1786C50.2422 61.8923 50.2591 61.5341 50.1082 61.2329L45.7775 52.5717V45.7156L53.1466 40.6881C53.4115 40.5074 53.5702 40.2068 53.5702 39.8856V26.3814L58.6437 22.999C58.9138 22.819 59.0764 22.5152 59.0764 22.1907C59.0764 21.8662 58.9145 21.5624 58.6444 21.3823ZM41.9457 60.696L44.8066 54.9741L47.6676 60.696H41.9457ZM31.6464 53.005L10.3541 39.3544V26.9876L30.9689 40.7315C31.1321 40.8403 31.3199 40.8947 31.5078 40.8947C31.6956 40.8947 31.8834 40.8403 32.0467 40.7315L43.835 32.8721V44.689L31.6464 53.005ZM51.6277 39.3726L45.7782 43.3638V31.5767L51.6277 27.6768V39.3726ZM52.2618 24.9189C52.1186 24.972 51.9923 25.0568 51.89 25.1669L44.8066 29.8894L32.0467 21.3823C31.5991 21.0844 30.9967 21.2055 30.6994 21.6518C30.4021 22.0981 30.5226 22.7017 30.9689 22.999L43.0552 31.0566L31.5078 38.7553L6.66146 22.1907L31.5078 5.6267L56.354 22.1907L52.2618 24.9189Z" fill="black"/>
</svg>