<svg width="65" height="65" viewBox="0 0 65 65" fill="none" xmlns="http://www.w3.org/2000/svg">
<path d="M47.4918 9.63231C42.6928 6.3393 36.6445 5.38068 30.762 6.94298C29.5883 4.18693 26.8537 2.25024 23.674 2.25024C19.4296 2.25024 15.9766 5.70454 15.9766 9.95099C15.9766 12.049 16.8225 13.9513 18.1879 15.3413C17.8563 15.7649 17.5324 16.195 17.2299 16.6361C11.2813 25.3104 11.6466 36.2996 18.024 43.7004C15.5057 46.2907 8.22023 54.154 9.00397 57.6562C9.49429 59.8539 13.6727 62.8173 16.1055 62.8173C16.237 62.8173 16.3633 62.8082 16.4838 62.7907C19.9898 62.2699 24.6722 52.7769 26.2597 49.3408C35.5324 52.5949 45.9405 48.9988 51.8496 40.3867C58.9906 29.9772 57.0352 16.1808 47.4918 9.63231ZM23.674 4.19276C26.8485 4.19276 29.4316 6.77522 29.4316 9.95034C29.4316 13.1235 26.8491 15.7047 23.674 15.7047C20.5009 15.7047 17.9197 13.1235 17.9197 9.95034C17.9191 6.77586 20.5009 4.19276 23.674 4.19276ZM26.1127 47.2104L25.2447 46.862L24.8639 47.7157C20.9543 56.4806 17.443 60.6837 16.1988 60.8683C14.8612 61.0704 11.1952 58.5533 10.9005 57.232C10.6258 56.0052 13.2478 51.2522 19.9348 44.5276L20.712 43.7484L20.0656 43.0631C16.7603 39.5589 15.0556 35.0508 14.961 30.3788L39.8079 47.4261C35.4197 48.9897 30.5929 49.0066 26.1127 47.2104ZM50.2471 39.2875C48.041 42.5028 45.1529 44.9525 41.9344 46.529L15.0432 28.0794C15.3742 24.5266 16.6217 20.9583 18.8324 17.7346C19.1115 17.3279 19.4095 16.9308 19.7159 16.5402C20.874 17.2385 22.2257 17.6485 23.674 17.6485C27.9204 17.6485 31.3747 14.1955 31.3747 9.95099C31.3747 9.5643 31.3365 9.18668 31.2814 8.81553C36.6082 7.40739 42.0704 8.26821 46.3926 11.2354C55.0525 17.177 56.7819 29.7615 50.2471 39.2875Z" fill="black"/>
</svg>