<svg width="65" height="65" viewBox="0 0 65 65" fill="none" xmlns="http://www.w3.org/2000/svg">
<path d="M54.3255 3.14844H10.4481C6.51644 3.14844 3.31738 6.34749 3.31738 10.2791V40.4768C3.31738 44.4078 6.51579 47.6062 10.4481 47.6062H26.0372V59.6796H13.9541C13.4172 59.6796 12.9826 60.1142 12.9826 60.6512C12.9826 61.1881 13.4172 61.6227 13.9541 61.6227H27.0088H37.7641H50.8188C51.3557 61.6227 51.7903 61.1881 51.7903 60.6512C51.7903 60.1142 51.3557 59.6796 50.8188 59.6796H38.7357V47.6062H54.3248C58.2552 47.6062 61.4529 44.4078 61.4529 40.4768V10.2791C61.4536 6.34749 58.2558 3.14844 54.3255 3.14844ZM10.4481 5.09158H54.3255C57.1845 5.09158 59.5104 7.41881 59.5104 10.2791V33.1758H5.26117V10.2791C5.26117 7.41817 7.58776 5.09158 10.4481 5.09158ZM36.7932 59.6796H27.981V47.6062H36.7932V59.6796ZM54.3255 45.6631H37.7647H27.0095H10.4487C7.58841 45.6631 5.26117 43.3365 5.26117 40.4768V35.1196H59.5104V40.4768C59.5104 43.3365 57.1845 45.6631 54.3255 45.6631Z" fill="black"/>
<path d="M32.3866 36.9551C30.3806 36.9551 28.749 38.586 28.749 40.59C28.749 42.5941 30.3806 44.225 32.3866 44.225C34.3913 44.225 36.0216 42.5941 36.0216 40.59C36.0216 38.586 34.3913 36.9551 32.3866 36.9551ZM32.3866 42.2819C31.4526 42.2819 30.6922 41.5228 30.6922 40.59C30.6922 39.6573 31.4519 38.8982 32.3866 38.8982C33.3193 38.8982 34.0784 39.6573 34.0784 40.59C34.0784 41.5228 33.3193 42.2819 32.3866 42.2819Z" fill="black"/>
</svg>