<svg width="65" height="65" viewBox="0 0 65 65" fill="none" xmlns="http://www.w3.org/2000/svg">
<path d="M46.437 7.6942C46.4363 7.6942 46.4363 7.69356 46.4357 7.69356C43.0725 6.08711 39.4557 7.37033 36.5492 8.40066C35.0628 8.92775 33.6589 9.42582 32.6183 9.42582C31.5776 9.42582 30.1738 8.9284 28.688 8.40066C25.7822 7.36969 22.1654 6.08775 18.7996 7.69356C13.8034 10.0852 10.1563 15.6794 12.8518 21.7445C13.6867 23.6278 14.4654 25.0671 15.0918 26.2232C16.3022 28.46 17.0331 29.8103 17.0331 32.1232C17.0331 35.72 18.1099 47.4936 22.8938 54.1852C25.3092 57.5678 27.8454 58.7394 27.9525 58.7878C28.3118 58.9503 28.7357 58.8774 29.0215 58.6032C29.3067 58.329 29.3963 57.9084 29.248 57.542C29.2131 57.4568 25.8157 48.9478 27.8415 43.4136C28.9705 40.3458 31.1563 38.62 32.5125 38.7632C32.5828 38.7716 32.6551 38.7716 32.7254 38.7632C34.0931 38.6187 36.2673 40.3465 37.3938 43.4123C39.4221 48.9478 36.0202 57.4561 35.9854 57.5413C35.837 57.9078 35.926 58.3284 36.2112 58.6026C36.3957 58.7794 36.637 58.8729 36.8828 58.8729C37.017 58.8729 37.1518 58.8452 37.2796 58.7878C37.3867 58.7394 39.9273 57.5678 42.3434 54.1852C47.1241 47.4923 48.2002 35.7194 48.2002 32.1226C48.2002 29.8103 48.9305 28.4607 50.1409 26.2239C50.7667 25.0671 51.5454 23.6278 52.3796 21.7458C55.0783 15.6839 51.4331 10.0884 46.437 7.6942ZM50.6099 20.96C49.8054 22.7742 49.0783 24.1181 48.437 25.3032C47.1751 27.6355 46.2634 29.3207 46.2634 32.1232C46.2634 36.4439 44.9196 47.2471 40.7673 53.0607C40.0783 54.0252 39.3802 54.7832 38.7531 55.3671C39.6789 52.1445 40.7183 46.8645 39.2099 42.7458C37.9383 39.2845 35.2738 36.8194 32.8834 36.8194C32.7944 36.8194 32.706 36.8226 32.6183 36.8297C30.1621 36.6329 27.3447 39.1555 26.0234 42.7465C24.5163 46.8632 25.5538 52.1413 26.4783 55.3639C25.8525 54.7807 25.1557 54.0232 24.468 53.06C20.3125 47.2471 18.968 36.4439 18.968 32.1232C18.968 29.3207 18.0557 27.6349 16.7931 25.3026C16.1518 24.1174 15.4247 22.7742 14.6202 20.9594C13.0105 17.3381 13.8938 12.1878 19.6338 9.44066C22.2725 8.17937 25.337 9.26582 28.0409 10.2252C29.6886 10.8097 31.2447 11.3613 32.6183 11.3613C33.9918 11.3613 35.5486 10.8097 37.1963 10.2252C39.8989 9.26646 42.9615 8.18066 45.6021 9.44001C51.3421 12.1916 52.2221 17.3394 50.6099 20.96Z" fill="black"/>
<path d="M23.1416 13.558C23.6732 13.5548 24.1036 13.1232 24.1036 12.5903C24.1036 12.0555 23.6707 11.6226 23.1358 11.6226C23.0384 11.6226 20.7339 11.6426 19.1403 13.3871C18.0152 14.6193 17.5442 16.349 17.7423 18.5271C18.1642 23.2626 22.3358 26.8258 22.5132 26.9755C22.6945 27.1284 22.9165 27.2032 23.1358 27.2032C23.4113 27.2032 23.6855 27.0858 23.8765 26.8587C24.221 26.4497 24.1687 25.8393 23.7597 25.4948C23.7223 25.4632 20.0223 22.3051 19.67 18.3542C19.5242 16.7477 19.8229 15.5206 20.5571 14.7071C21.5603 13.5942 23.1145 13.558 23.1416 13.558Z" fill="black"/>
</svg>